<svg xmlns="http://www.w3.org/2000/svg" width="189" height="160" viewBox="0 0 189 160">
    <g fill="none" fill-rule="nonzero">
        <path fill="#0E2D53" d="M96.716 9.626S88.45 8.71 70.264 15.86c-15.523 6.143-23.422-1.283-23.422-1.283s-7.715 19.62-9.46 28.97c-1.745 9.352-.46 15.036-.46 15.036s29.025 22.92 45.466 33.28c16.44 10.36 19.747 11.826 23.513 7.609 5.419-5.96-.643-9.535-9.001-15.769 0 0 12.307 9.443 16.44 10.268 4.685.917 11.665-5.317 6.797-10.635-4.868-5.317-14.144-13.385-14.144-13.385s16.808 14.485 20.206 15.586c3.398 1.1 7.072-1.834 8.817-4.768 3.49-5.959-3.122-10.268-8.909-15.86-3.582-3.484-8.725-7.793-8.725-7.793s13.593 13.202 19.471 13.569c6.797.458 9.828-6.876 7.532-11.277-2.296-4.217-12.4-14.944-24.432-27.687-9-9.535-15.706-21.178-23.237-22.095z"/>
        <path fill="#FFF" d="M101.951 102.497c-3.582.092-8.817-2.934-19.93-9.901C65.762 82.328 36.738 59.5 36.463 59.316a.504.504 0 0 1-.276-.458c-.092-.275-1.286-5.96.46-15.31 1.744-9.352 9.184-28.33 9.552-29.154.091-.275.275-.459.55-.459a.715.715 0 0 1 .735.184s4.042 3.667 11.757 3.483c3.398-.091 6.98-.916 10.746-2.383C83.49 9.9 91.481 8.985 95.154 8.893h1.654c5.694.642 10.654 6.692 16.44 13.752 2.297 2.842 4.685 5.776 7.257 8.434l1.928 2.109c11.39 12.101 20.39 21.728 22.595 25.853 1.286 2.476 1.194 5.684-.367 8.343-1.47 2.567-4.042 4.126-7.073 4.126h-.826c-1.01-.092-2.388-.459-3.95-1.284 3.307 3.392 5.327 6.784 2.847 11.002-1.47 2.567-4.592 5.317-7.899 5.409a5.932 5.932 0 0 1-1.836-.275c-.919-.275-2.572-1.376-4.685-2.934 1.47 1.925 1.745 4.126.827 6.326-1.286 2.934-4.5 5.134-7.623 5.226-.46 0-.827 0-1.194-.092-1.103-.184-2.848-1.009-5.144-2.384.367.734.643 1.467.735 2.292.184 1.742-.551 3.484-2.296 5.318-1.47 1.65-2.848 2.383-4.593 2.383zm-64.293-44.28c2.847 2.2 29.758 23.286 45.189 33.004 10.562 6.6 15.89 9.718 19.012 9.718 1.286 0 2.297-.55 3.49-1.926 1.378-1.466 1.93-2.842 1.838-4.033-.184-2.2-2.572-4.401-6.338-7.243-2.572-1.834-4.409-3.3-4.409-3.3-.367-.276-.459-.826-.183-1.1.275-.367.734-.46 1.102-.184l1.745 1.283c.918.642 1.837 1.376 2.664 1.926 5.694 4.034 9.827 6.509 11.664 6.784.276.092.551.092.919.092 2.388-.092 5.143-1.926 6.154-4.218.55-1.191.734-3.117-1.01-5.134-4.777-5.225-13.962-13.201-14.054-13.293-.367-.275-.367-.825-.091-1.192.275-.367.826-.367 1.194-.092 6.705 5.776 17.543 14.669 19.93 15.402.46.092.827.184 1.286.184 2.572-.092 5.236-2.384 6.522-4.584 2.48-4.217-.643-7.334-5.879-12.193-.918-.826-1.928-1.742-2.847-2.66-.46-.458-1.01-.916-1.47-1.374-3.949-3.21-7.255-6.418-7.255-6.418-.276-.275-.368-.825 0-1.1.275-.367.826-.367 1.102-.092 0 0 3.95 3.3 7.256 6.418 5.327 4.309 9.46 6.784 11.664 6.876 3.674.183 5.603-2.017 6.43-3.3 1.194-2.11 1.378-4.768.275-6.693-2.112-3.942-11.48-13.935-22.41-25.487l-1.93-2.109c-2.571-2.75-5.051-5.684-7.347-8.526-5.511-6.784-10.287-12.652-15.339-13.202 0 0-.55-.091-1.47 0-2.847.092-10.837.826-24.523 6.235-3.95 1.558-7.715 2.383-11.297 2.475-6.338.183-10.379-2.017-12.032-3.209-1.562 4.126-7.532 19.895-9.001 27.87-1.47 7.885-.735 13.11-.551 14.394z"/>
        <path fill="#0A595D" d="M145.579 11.918s-15.247 1.192-24.064-.641c-7.532-1.65-20.299-5.41-23.513-4.676-3.215.733-5.695 1.008-11.481 7.334-5.787 6.234-11.022 12.56-12.767 13.844-1.745 1.283 3.674 5.592 10.93 4.859 7.256-.734 12.491-6.143 16.257-10.268 3.766-4.126 13.685 5.592 20.206 11.551 6.98 6.418 14.972 15.77 19.105 19.436 4.96 4.4 9 3.392 9 3.392s4.042-28.787-3.673-44.83z"/>
        <path fill="#FFF" d="M148.15 57.574c-1.653 0-4.867-.366-8.633-3.667-1.929-1.65-4.5-4.492-7.623-7.7-3.582-3.851-7.716-8.16-11.481-11.736l-1.47-1.375c-5.052-4.675-11.94-11.093-15.89-11.001-.734 0-1.285.275-1.653.733-4.317 4.767-9.552 9.81-16.808 10.543-6.246.642-11.297-2.292-12.032-4.4-.276-.734-.092-1.467.551-1.926.918-.733 3.306-3.392 5.97-6.417a366.176 366.176 0 0 1 6.613-7.335c5.787-6.234 8.358-6.784 11.573-7.426l.367-.091c2.48-.55 9.553 1.192 16.441 2.934 2.664.641 5.235 1.283 7.44 1.741 4.868 1.009 11.756 1.1 16.624 1.009 4.133-.092 7.164-.367 7.164-.367.368 0 .643.184.827.459 7.715 16.135 3.766 44.006 3.674 45.197-.092.367-.276.55-.643.642.092.092-.275.183-1.01.183zm-45.097-37.13c4.593-.091 11.481 6.326 16.992 11.46l1.47 1.375c3.857 3.576 7.99 7.885 11.573 11.735 3.03 3.21 5.602 5.96 7.44 7.61 3.306 2.934 6.061 3.3 7.439 3.3h.276c.55-4.125 3.306-28.695-3.307-43.18a81.73 81.73 0 0 1-6.705.274c-5.051.092-12.032 0-17.084-1.008-2.204-.458-4.776-1.1-7.44-1.742-6.245-1.558-13.5-3.392-15.705-2.934l-.368.092c-2.939.642-5.327 1.1-10.746 6.968a366.176 366.176 0 0 0-6.613 7.334c-3.03 3.392-5.143 5.776-6.246 6.6 0 0 .092.276.46.734 1.194 1.284 4.96 3.209 9.827 2.659 6.705-.642 11.665-5.5 15.706-9.993.919-.825 1.93-1.192 3.031-1.284z"/>
        <path fill="#0A595D" d="M53.823 71.968c-2.02 1.834-5.235 1.742-7.072-.367l-1.93-2.2c-1.836-2.017-1.744-5.226.368-7.06l9.828-8.892c2.02-1.834 5.235-1.742 7.072.367l1.929 2.2c1.837 2.017 1.745 5.226-.367 7.06l-9.828 8.892z"/>
        <path fill="#FFF" d="M50.608 74.077c-1.653 0-3.306-.642-4.5-1.926l-1.93-2.2c-2.203-2.384-2.02-6.05.368-8.251l9.828-8.893c1.01-.917 2.388-1.467 3.766-1.558 1.653 0 3.306.641 4.5 1.925l1.93 2.2c2.203 2.384 2.02 6.051-.368 8.251l-9.828 8.893a5.364 5.364 0 0 1-3.766 1.559zm7.624-21.087c-1.01 0-2.021.367-2.756 1.1l-9.828 8.894c-1.745 1.558-1.837 4.217-.275 5.959l1.929 2.2c1.47 1.65 4.317 1.742 5.97.275l9.828-8.893c1.745-1.558 1.836-4.217.275-5.959l-1.929-2.2c-.826-.825-2.02-1.376-3.214-1.376z"/>
        <path fill="#0A595D" d="M62.273 83.153c-2.02 1.833-5.235 1.742-7.072-.367l-1.93-2.108c-1.836-2.017-1.744-5.226.368-7.06l9.828-8.893c2.02-1.833 5.235-1.741 7.072.367l1.929 2.2c1.837 2.017 1.745 5.226-.367 7.06l-9.828 8.8z"/>
        <path fill="#FFF" d="M59.058 85.262c-1.653 0-3.306-.642-4.5-1.926l-1.93-2.2c-2.112-2.384-2.02-6.05.368-8.251l9.828-8.893a5.698 5.698 0 0 1 3.766-1.467c1.745 0 3.306.642 4.5 1.925l1.93 2.2c2.203 2.384 2.02 6.051-.368 8.252l-9.828 8.893a5.698 5.698 0 0 1-3.766 1.467zm7.624-20.995c-1.01 0-2.021.367-2.756 1.1l-9.828 8.893c-1.745 1.559-1.837 4.217-.275 5.96l1.929 2.2c1.47 1.65 4.317 1.741 5.97.275l9.828-8.893c1.745-1.559 1.837-4.218.275-5.96l-1.929-2.2c-.826-.917-2.02-1.467-3.214-1.375z"/>
        <g>
            <path fill="#0A595D" d="M74.121 91.587c-2.02 1.834-5.235 1.742-7.072-.366l-1.929-2.2c-1.837-2.018-1.745-5.226.368-7.06l9.827-8.893c2.021-1.833 5.236-1.742 7.073.367l1.928 2.2c1.837 2.017 1.746 5.226-.367 7.06l-9.828 8.892z"/>
            <path fill="#FFF" d="M70.907 93.696c-1.654 0-3.307-.642-4.5-1.925l-1.93-2.2a6.473 6.473 0 0 1-1.561-4.218c.092-1.558.735-3.025 1.929-4.034l9.827-8.893c1.01-.916 2.388-1.466 3.766-1.558 1.653 0 3.307.642 4.5 1.925l1.93 2.2c2.204 2.384 2.02 6.051-.368 8.252l-9.828 8.892a5.207 5.207 0 0 1-3.765 1.559zm7.623-20.995c-1.01 0-2.02.367-2.755 1.1l-9.828 8.894c-.827.733-1.286 1.741-1.378 2.933-.092 1.1.367 2.2 1.102 3.026l1.93 2.2c1.469 1.65 4.316 1.742 5.97.275l9.827-8.893c1.745-1.558 1.837-4.217.275-5.959l-1.928-2.2c-.827-.917-2.021-1.467-3.215-1.376z"/>
        </g>
        <g>
            <path fill="#0A595D" d="M86.337 99.38c-2.02 1.834-5.235 1.742-7.072-.367l-1.929-2.2c-1.837-2.017-1.745-5.226.367-7.06l9.828-8.892c2.02-1.834 5.235-1.742 7.072.367l1.93 2.2c1.836 2.017 1.744 5.226-.368 7.06l-9.828 8.892z"/>
            <path fill="#FFF" d="M83.122 101.58c-1.653 0-3.306-.641-4.5-1.925l-1.929-2.2c-1.01-1.192-1.561-2.659-1.47-4.217.092-1.559.735-3.026 1.93-4.034l9.827-8.893c1.01-.917 2.388-1.467 3.766-1.559 1.653 0 3.306.642 4.5 1.926l1.93 2.2a6.473 6.473 0 0 1 1.56 4.217c-.091 1.559-.734 3.026-1.928 4.034l-9.828 8.893a6.808 6.808 0 0 1-3.858 1.558zm7.624-21.086c-1.01 0-2.02.367-2.756 1.1l-9.827 8.893c-.827.734-1.286 1.742-1.378 2.934-.092 1.1.367 2.2 1.102 3.025l1.929 2.2c1.47 1.65 4.317 1.743 5.97.276l9.828-8.893c.826-.734 1.286-1.742 1.377-2.934.092-1.1-.367-2.2-1.102-3.025l-1.929-2.2c-.826-.917-2.02-1.467-3.214-1.376z"/>
        </g>
        <g>
            <path fill="#0E2D53" d="M56.21 13.293l-18.92 52.44L.827 52.808 19.38 1.008z"/>
            <path fill="#FFF" d="M37.29 66.559c-.092 0-.183 0-.275-.092L.55 53.541c-.184-.092-.367-.184-.46-.459a.782.782 0 0 1 0-.642L18.646.55c.184-.458.643-.642 1.01-.458l36.831 12.285c.184.091.368.183.46.458a.782.782 0 0 1 0 .642L38.025 66.009c-.092.367-.367.55-.735.55zM1.837 52.349l34.902 12.376 18.37-50.973-35.27-11.735L1.837 52.349z"/>
        </g>
        <g>
            <path fill="#0A595D" d="M178.828 2.567l7.899 55.19-38.3 5.593-7.9-54.457z"/>
            <path fill="#FFF" d="M148.426 64.175c-.183 0-.367-.091-.55-.183-.185-.092-.276-.367-.368-.55l-7.9-54.55c-.091-.458.276-.824.644-.916l38.3-6.326c.184 0 .46 0 .643.184.184.091.276.366.368.55l7.899 55.19c.092.459-.276.826-.735.917l-38.3 5.593c.091.091 0 .091 0 .091zm-6.98-54.64l7.623 52.898 36.648-5.409-7.624-53.54-36.647 6.05z"/>
        </g>
        <g>
            <path fill="#0E2D53" d="M9.09 122.42H6.6v6.613H2v-18.734h7.509c2.263 0 4.032.494 5.307 1.48 1.276.987 1.913 2.38 1.913 4.182 0 1.303-.268 2.384-.805 3.242-.538.858-1.379 1.552-2.523 2.084l3.984 7.553v.193h-4.928l-3.367-6.614zm-2.49-3.487h2.909c.873 0 1.53-.225 1.972-.676.441-.45.662-1.078.662-1.885 0-.806-.223-1.439-.668-1.897-.446-.46-1.101-.689-1.966-.689h-2.91v5.147zm19.565 10.357c-2.176 0-3.936-.637-5.281-1.91-1.346-1.274-2.019-2.932-2.019-4.973v-.36c0-1.425.27-2.681.806-3.77a5.83 5.83 0 0 1 2.353-2.529c1.03-.596 2.254-.894 3.669-.894 1.992 0 3.564.607 4.717 1.82 1.154 1.214 1.73 2.906 1.73 5.076v1.686h-8.78c.158.78.503 1.394 1.036 1.84.532.446 1.223.669 2.07.669 1.398 0 2.49-.48 3.276-1.441l2.018 2.341c-.55.747-1.33 1.34-2.339 1.782a8.03 8.03 0 0 1-3.256.663zm-.498-11.09c-1.293 0-2.062.84-2.307 2.521h4.456v-.334c.017-.695-.162-1.233-.537-1.615-.376-.382-.913-.573-1.612-.573zm16.236 10.833c-.157-.283-.297-.7-.42-1.248-.812 1.003-1.947 1.505-3.406 1.505-1.337 0-2.473-.397-3.408-1.19-.934-.794-1.402-1.79-1.402-2.992 0-1.51.568-2.65 1.704-3.422 1.136-.772 2.787-1.158 4.953-1.158h1.363v-.733c0-1.278-.563-1.917-1.69-1.917-1.049 0-1.573.506-1.573 1.518h-4.416c0-1.347.583-2.44 1.75-3.281 1.166-.84 2.653-1.26 4.462-1.26 1.808 0 3.236.432 4.285 1.299 1.048.866 1.585 2.054 1.612 3.564v6.162c.017 1.279.218 2.256.602 2.934v.219h-4.416zm-2.765-2.83c.55 0 1.007-.117 1.37-.348.362-.232.622-.493.78-.785v-2.226h-1.285c-1.538 0-2.306.678-2.306 2.033 0 .394.135.714.406.958.27.245.616.367 1.035.367zm13.681 2.83h-4.43V109.27h4.43v19.763zm7.378 0h-4.43V115.11h4.43v13.922zm-4.691-17.511c0-.618.227-1.124.681-1.518.454-.395 1.044-.592 1.77-.592.724 0 1.314.197 1.768.592.454.394.682.9.682 1.518 0 .617-.228 1.123-.682 1.518-.454.395-1.044.592-1.769.592-.725 0-1.315-.197-1.769-.592-.454-.395-.681-.9-.681-1.518zm12.554.128v3.461h2.332v3.011H68.06v6.369c0 .523.096.888.288 1.094.192.205.572.308 1.14.308.437 0 .804-.025 1.1-.077v3.1a8.29 8.29 0 0 1-2.489.374c-1.52 0-2.643-.352-3.368-1.055-.725-.703-1.088-1.771-1.088-3.204v-6.909h-1.808v-3.01h1.808v-3.462h4.417zm9.736 11.31l2.36-7.849h4.73l-5.78 16.25-.248.592c-.821 1.802-2.272 2.702-4.35 2.702a7.015 7.015 0 0 1-1.822-.257v-3.1h.576c.62 0 1.094-.089 1.422-.265.328-.175.57-.49.727-.945l.354-.927-4.927-14.05h4.717l2.241 7.849zm22.212-.54h-2.49v6.613h-4.6v-18.734h7.51c2.262 0 4.032.494 5.307 1.48 1.276.987 1.913 2.38 1.913 4.182 0 1.303-.268 2.384-.806 3.242-.537.858-1.378 1.552-2.522 2.084l3.983 7.553v.193h-4.927l-3.368-6.614zm-2.49-3.487h2.91c.873 0 1.53-.225 1.972-.676.441-.45.662-1.078.662-1.885 0-.806-.223-1.439-.669-1.897-.445-.46-1.1-.689-1.965-.689h-2.91v5.147zm19.565 10.357c-2.175 0-3.935-.637-5.28-1.91-1.346-1.274-2.019-2.932-2.019-4.973v-.36c0-1.425.269-2.681.806-3.77a5.83 5.83 0 0 1 2.352-2.529c1.031-.596 2.254-.894 3.67-.894 1.992 0 3.564.607 4.717 1.82 1.154 1.214 1.73 2.906 1.73 5.076v1.686h-8.78c.157.78.502 1.394 1.035 1.84.533.446 1.223.669 2.07.669 1.399 0 2.49-.48 3.277-1.441l2.018 2.341c-.55.747-1.33 1.34-2.339 1.782a8.03 8.03 0 0 1-3.257.663zm-.497-11.09c-1.293 0-2.062.84-2.307 2.521h4.456v-.334c.017-.695-.162-1.233-.538-1.615-.375-.382-.913-.573-1.611-.573zm9.225 10.833v-10.91h-2.057v-3.012h2.057v-1.106c0-1.587.476-2.818 1.428-3.693.953-.875 2.29-1.312 4.01-1.312.63 0 1.32.09 2.07.27l.014 3.191c-.27-.077-.633-.116-1.088-.116-1.336 0-2.005.566-2.005 1.699v1.067h2.765v3.011h-2.765v10.91h-4.429zm15.607.257c-2.175 0-3.935-.637-5.28-1.91-1.346-1.274-2.019-2.932-2.019-4.973v-.36c0-1.425.269-2.681.806-3.77a5.83 5.83 0 0 1 2.352-2.529c1.031-.596 2.254-.894 3.67-.894 1.992 0 3.564.607 4.717 1.82 1.154 1.214 1.73 2.906 1.73 5.076v1.686h-8.78c.157.78.502 1.394 1.035 1.84.533.446 1.223.669 2.07.669 1.399 0 2.49-.48 3.277-1.441l2.018 2.341c-.55.747-1.33 1.34-2.339 1.782a8.03 8.03 0 0 1-3.257.663zm-.497-11.09c-1.293 0-2.062.84-2.307 2.521h4.456v-.334c.017-.695-.162-1.233-.538-1.615-.375-.382-.913-.573-1.611-.573zm16.826.836l-1.455-.103c-1.389 0-2.28.429-2.673 1.286v8.814h-4.416V115.11h4.14l.145 1.789c.742-1.364 1.778-2.046 3.105-2.046.472 0 .883.052 1.232.155l-.078 4.027zm10.169 0l-1.455-.103c-1.389 0-2.28.429-2.673 1.286v8.814h-4.416V115.11h4.14l.145 1.789c.742-1.364 1.778-2.046 3.106-2.046.471 0 .882.052 1.231.155l-.078 4.027zm9.58 9.997c-.158-.283-.298-.7-.42-1.248-.813 1.003-1.948 1.505-3.407 1.505-1.337 0-2.473-.397-3.408-1.19-.934-.794-1.402-1.79-1.402-2.992 0-1.51.568-2.65 1.704-3.422 1.136-.772 2.787-1.158 4.953-1.158h1.363v-.733c0-1.278-.563-1.917-1.69-1.917-1.049 0-1.573.506-1.573 1.518H169.2c0-1.347.583-2.44 1.75-3.281 1.166-.84 2.653-1.26 4.462-1.26 1.808 0 3.236.432 4.285 1.299 1.048.866 1.585 2.054 1.612 3.564v6.162c.017 1.279.218 2.256.602 2.934v.219h-4.416zm-2.766-2.83c.55 0 1.007-.117 1.37-.348.362-.232.622-.493.78-.785v-2.226h-1.285c-1.538 0-2.306.678-2.306 2.033 0 .394.135.714.406.958.27.245.616.367 1.035.367zm13.681 2.83h-4.43V109.27h4.43v19.763z"/>
            <path fill="#0A595D" d="M46.359 153.02h-2.49v6.613h-4.6v-18.734h7.509c2.263 0 4.032.494 5.307 1.48 1.276.987 1.914 2.38 1.914 4.182 0 1.303-.27 2.384-.806 3.242-.538.858-1.379 1.552-2.523 2.084l3.984 7.553v.193h-4.928l-3.367-6.614zm-2.49-3.487h2.909c.874 0 1.531-.225 1.972-.676.441-.45.662-1.078.662-1.885 0-.806-.223-1.439-.668-1.897-.446-.46-1.101-.689-1.966-.689h-2.91v5.147zm19.565 10.357c-2.176 0-3.936-.637-5.281-1.91-1.346-1.274-2.018-2.932-2.018-4.973v-.36c0-1.425.268-2.681.806-3.77a5.83 5.83 0 0 1 2.352-2.529c1.03-.596 2.254-.894 3.669-.894 1.992 0 3.564.607 4.718 1.82 1.153 1.214 1.73 2.906 1.73 5.076v1.686h-8.78c.157.78.502 1.394 1.035 1.84.533.446 1.223.669 2.07.669 1.398 0 2.49-.48 3.276-1.441l2.018 2.341c-.55.747-1.33 1.34-2.339 1.782a8.03 8.03 0 0 1-3.256.663zm-.498-11.09c-1.293 0-2.062.84-2.307 2.521h4.456v-.334c.017-.695-.162-1.233-.537-1.615-.376-.382-.913-.573-1.612-.573zm15.673 6.921c0-.368-.197-.664-.59-.887-.393-.223-1.14-.455-2.24-.695-1.102-.24-2.01-.556-2.727-.946-.716-.39-1.262-.864-1.638-1.422-.375-.557-.563-1.196-.563-1.917 0-1.278.537-2.33 1.612-3.158 1.074-.828 2.48-1.242 4.22-1.242 1.869 0 3.372.416 4.507 1.248 1.136.832 1.704 1.926 1.704 3.281h-4.43c0-1.115-.598-1.673-1.795-1.673-.463 0-.851.127-1.166.38-.315.253-.472.568-.472.946 0 .386.192.699.577.939.384.24.998.437 1.841.592.843.154 1.583.339 2.221.553 2.132.72 3.198 2.011 3.198 3.873 0 1.27-.575 2.303-1.724 3.1-1.148.798-2.636 1.197-4.462 1.197-1.214 0-2.297-.214-3.25-.643-.952-.43-1.694-1.012-2.227-1.75-.533-.738-.8-1.514-.8-2.329h4.128c.018.643.236 1.113.655 1.409.42.296.957.444 1.612.444.603 0 1.055-.12 1.357-.36.301-.24.452-.554.452-.94zm5.766-3.178c0-1.39.275-2.626.825-3.711a5.84 5.84 0 0 1 2.372-2.503c1.031-.583 2.241-.875 3.63-.875 2.123 0 3.796.646 5.02 1.936 1.222 1.291 1.834 3.048 1.834 5.27v.154c0 2.17-.614 3.892-1.841 5.165-1.228 1.274-2.89 1.911-4.987 1.911-2.018 0-3.638-.594-4.861-1.782-1.223-1.188-1.883-2.798-1.98-4.831l-.012-.734zm4.416.27c0 1.287.205 2.23.616 2.831.41.6 1.018.9 1.821.9 1.573 0 2.377-1.187 2.412-3.563v-.438c0-2.496-.813-3.744-2.438-3.744-1.476 0-2.276 1.077-2.398 3.23l-.013.785zm19.657 5.314c-.935 1.175-2.198 1.763-3.788 1.763-1.555 0-2.732-.444-3.531-1.332-.8-.887-1.2-2.163-1.2-3.827v-9.02h4.417v9.045c0 1.193.59 1.789 1.769 1.789 1.013 0 1.734-.356 2.162-1.068v-9.766h4.443v13.922h-4.141l-.131-1.506zm15.266-8.491l-1.454-.103c-1.39 0-2.28.429-2.674 1.286v8.814h-4.416V145.71h4.141l.144 1.789c.743-1.364 1.778-2.046 3.106-2.046.472 0 .883.052 1.232.155l-.079 4.027zm7.588 6.909c.62 0 1.1-.165 1.441-.496.341-.33.507-.79.498-1.383h4.141c0 1.527-.557 2.78-1.67 3.757-1.114.978-2.55 1.467-4.305 1.467-2.062 0-3.687-.635-4.875-1.904-1.188-1.27-1.782-3.028-1.782-5.275v-.18c0-1.407.264-2.649.792-3.725.529-1.077 1.291-1.904 2.287-2.483.996-.58 2.175-.869 3.538-.869 1.844 0 3.307.502 4.39 1.505 1.084 1.004 1.625 2.364 1.625 4.08h-4.14c0-.721-.18-1.275-.538-1.66-.358-.387-.839-.58-1.441-.58-1.145 0-1.813.717-2.005 2.149-.062.455-.092 1.08-.092 1.878 0 1.399.17 2.368.51 2.908.342.54.883.81 1.626.81zm14.808 3.345c-2.175 0-3.936-.637-5.281-1.91-1.346-1.274-2.018-2.932-2.018-4.973v-.36c0-1.425.268-2.681.806-3.77a5.83 5.83 0 0 1 2.352-2.529c1.03-.596 2.254-.894 3.67-.894 1.991 0 3.564.607 4.717 1.82 1.153 1.214 1.73 2.906 1.73 5.076v1.686h-8.78c.157.78.502 1.394 1.035 1.84.533.446 1.223.669 2.07.669 1.398 0 2.49-.48 3.276-1.441l2.019 2.341c-.55.747-1.33 1.34-2.34 1.782a8.03 8.03 0 0 1-3.256.663zm-.498-11.09c-1.293 0-2.062.84-2.306 2.521h4.455v-.334c.018-.695-.162-1.233-.537-1.615-.376-.382-.913-.573-1.612-.573z"/>
        </g>
    </g>
</svg>
