<svg xmlns="http://www.w3.org/2000/svg" width="80" height="100" viewBox="0 0 80 100">
    <g fill="none" fill-rule="nonzero">
        <g fill="#0E2D53">
            <path d="M38.431 41.312c2.032 2.032 2.032 5.249 0 7.111-2.032 2.032-5.248 2.032-7.111 0L14.558 31.661l-2.37-2.37c-2.032-2.032-2.032-5.249 0-7.111 2.031-2.032 5.248-2.032 7.11 0l10.837 10.836 8.296 8.296zM37.246 25.736c2.032 2.031 2.032 5.248 0 7.11-2.032 2.032-5.249 2.032-7.111 0L19.299 22.012l-2.37-2.37c-2.032-2.032-2.032-5.25 0-7.112a5.11 5.11 0 0 1 7.28 0l.677.677 12.36 12.53z"/>
            <path d="M38.431 55.534a5.11 5.11 0 0 1 0 7.28c-2.032 2.032-5.248 2.032-7.111 0l-7.619-7.618L9.817 41.312l-2.37-2.37a5.11 5.11 0 0 1 0-7.28c2.032-2.032 5.249-2.032 7.111 0L31.32 48.422l7.111 7.111z"/>
            <path d="M74.833 50.455c2.37 3.048 4.064 7.28 4.064 13.037 0 11.852-13.545 28.783-13.545 32.17v3.386H24.717v-10.16h10.159c1.693 0 3.386-1.692 3.386-1.692l18.624-16.931s6.773-6.773 6.773-8.466c0-1.693 0-1.693-1.693-3.386L53.5 49.947c-3.386-3.386-6.772-5.08-6.772-8.466 0-2.709 2.54-8.127 5.079-6.772 0 0 12.868 7.45 16.931 10.159 2.201 1.523 4.402 3.217 6.095 5.587M23.532 55.026c2.031 2.032 2.031 5.249 0 7.112-2.032 2.031-5.249 2.031-7.111 0l-4.064-4.064-9.82-9.82c-2.032-2.032-2.032-5.249 0-7.111 2.032-2.032 5.249-2.032 7.111 0l13.884 13.883z"/>
        </g>
        <path fill="#10767B" d="M23.532 55.026l7.619 7.62c2.032 2.031 5.248 2.031 7.11 0a5.11 5.11 0 0 0 0-7.28l-7.11-7.112c2.032 2.032 5.248 2.032 7.11 0 2.033-2.032 2.033-5.249 0-7.111l-8.465-8.466c2.032 2.032 5.249 2.032 7.111 0 2.032-2.032 2.032-5.248 0-7.11l-12.529-12.53V.847h40.635v13.545c0 3.386 10.159 10.158 10.159 27.09v8.634l-.508.508c-1.863-2.37-4.064-4.232-6.095-5.587-4.064-2.709-16.932-10.159-16.932-10.159-2.54-1.354-5.079 4.064-5.079 6.773 0 3.386 3.386 5.08 6.773 8.465l8.465 8.466c1.693 1.693 1.693 1.693 1.693 3.386 0 1.694-6.772 8.466-6.772 8.466L38.092 87.365s-1.693 1.693-3.386 1.693H19.468c-2.878 0-5.08-2.2-5.08-5.079 0-2.878 2.202-5.08 5.08-5.08h-5.08c-2.878 0-5.079-2.2-5.079-5.079 0-2.878 2.201-5.08 5.08-5.08h-5.08c-2.878 0-5.079-2.2-5.079-5.078 0-1.355.508-2.54 1.355-3.387 0 0 1.354-1.693 3.894-1.693h2.709l.169-.17 4.063 4.064c2.032 2.032 5.249 2.032 7.112 0 2.031-2.2 2.031-5.418 0-7.45"/>
        <path fill="#59AEC4" d="M65.352 99.894c-.508 0-.847-.338-.847-.846V95.66c0-1.354 1.355-3.724 3.894-8.127 3.895-6.603 9.651-16.592 9.651-24.042 0-10.159-5.248-14.9-9.82-17.947-3.894-2.54-16.762-9.99-16.931-10.159-.17-.169-.508-.169-1.016.17-1.524.846-2.709 4.063-2.709 5.926 0 2.031 1.524 3.555 3.894 5.418.847.677 1.694 1.523 2.71 2.54l8.465 8.465c1.863 1.862 1.863 2.032 1.863 4.063 0 1.863-4.91 6.942-6.942 9.143L38.939 88.042c-.169.17-2.031 1.863-3.894 1.863H19.807c-3.217 0-5.926-2.709-5.926-5.926 0-1.693.677-3.217 1.862-4.233h-1.015c-3.217 0-5.926-2.709-5.926-5.926 0-1.693.677-3.217 1.862-4.232H9.648c-3.217 0-5.926-2.71-5.926-5.926 0-1.524.508-2.879 1.524-3.895a.818.818 0 0 1 1.185 0 .818.818 0 0 1 0 1.185 4.598 4.598 0 0 0-1.016 2.879 4.192 4.192 0 0 0 4.233 4.232h18.624c.508 0 .847.34.847.847 0 .508-.339.847-.847.847H14.727a4.192 4.192 0 0 0-4.232 4.232 4.192 4.192 0 0 0 4.232 4.233H31.66c1.015 0 2.37-1.016 2.708-1.524L46.22 64.847a.818.818 0 0 1 1.185 0 .818.818 0 0 1 0 1.185L35.553 77.884c-.17.169-2.032 1.862-4.064 1.862H19.637a4.192 4.192 0 0 0-4.232 4.233 4.192 4.192 0 0 0 4.232 4.233h15.238c1.016 0 2.37-1.016 2.71-1.524l18.624-16.931c3.047-3.048 6.434-6.942 6.434-7.789 0-1.354 0-1.354-1.524-2.709l-8.466-8.465c-.846-.847-1.693-1.693-2.54-2.37-2.37-2.033-4.402-3.895-4.402-6.604 0-2.37 1.524-6.095 3.556-7.28.846-.508 1.862-.678 2.709-.17.508.34 13.037 7.62 17.1 10.16 4.91 3.216 10.498 8.465 10.498 19.3 0 7.958-5.757 17.779-9.82 24.89-1.863 3.217-3.725 6.264-3.725 7.28v3.386c.17.17-.17.508-.677.508zm-40.635 0c-.508 0-.847-.338-.847-.846V95.66c0-.508.339-.846.847-.846s.846.338.846.846v3.387c0 .508-.338.846-.846.846zm10.159-34.709c-1.524 0-3.048-.677-4.233-1.693l-4.74-4.74c0 1.523-.509 3.047-1.694 4.232-2.2 2.201-6.095 2.201-8.466 0L1.86 49.101c-2.37-2.37-2.37-6.096 0-8.297 1.185-1.185 2.709-1.693 4.233-1.693-1.863-2.37-1.693-5.756.508-7.788 1.185-1.185 2.709-1.862 4.232-1.693-.846-1.016-1.185-2.37-1.185-3.725 0-1.524.677-3.047 1.693-4.233 1.185-1.185 2.71-1.862 4.233-1.693-1.862-2.37-1.693-5.756.508-7.788 2.032-2.032 5.249-2.2 7.619-.677V.847c0-.508.339-.847.847-.847s.846.339.846.847v12.02l12.19 12.191c1.186 1.185 1.694 2.54 1.694 4.233 0 1.524-.677 3.048-1.693 4.233-1.185 1.185-2.71 1.693-4.233 1.693l5.418 5.418c1.185 1.185 1.693 2.54 1.693 4.233 0 1.523-.677 3.047-1.693 4.232-1.185 1.186-2.54 1.693-4.233 1.693l4.233 4.233c1.185 1.185 1.693 2.54 1.693 4.233 0 1.524-.677 3.048-1.693 4.233-.847 1.016-2.37 1.693-3.894 1.693zm-24.043-34.2c-1.016 0-2.2.338-3.047 1.184-1.693 1.693-1.693 4.402 0 5.926l23.873 23.873c1.524 1.524 4.402 1.524 5.926 0 .846-.846 1.185-1.862 1.185-3.047s-.508-2.201-1.185-3.048L13.542 31.831c-.508-.508-1.524-.847-2.709-.847zm-4.74 9.65c-1.016 0-2.201.339-3.048 1.185-.847.847-1.185 1.863-1.185 3.048s.508 2.2 1.185 3.047L16.929 61.8c1.523 1.524 4.402 1.524 5.926 0 1.693-1.693 1.693-4.402 0-5.926L8.97 41.989c-.677-1.015-1.862-1.354-2.878-1.354zm20.994 2.37l4.741 4.741c1.524 1.524 4.402 1.524 5.926 0 .847-.847 1.185-1.862 1.185-3.048 0-1.185-.508-2.2-1.185-3.047L18.622 22.518c-1.524-1.523-4.403-1.523-5.926 0-.847.847-1.185 1.863-1.185 3.048s.507 2.201 1.185 3.048l2.37 2.37 12.021 12.021zm-6.603-31.153c-1.016 0-2.2.338-3.047 1.185-1.694 1.693-1.694 4.402 0 5.926l13.206 13.206c1.524 1.524 4.402 1.524 5.926 0 .846-.846 1.185-1.862 1.185-3.047s-.508-2.201-1.185-3.048L23.362 12.868c-.677-.678-1.862-1.016-2.878-1.016zm55.027 30.476c-.508 0-.847-.339-.847-.847 0-11.513-4.74-18.285-7.62-22.349-1.354-2.032-2.539-3.555-2.539-4.74V.846c0-.508.339-.847.847-.847s.846.339.846.847v13.545c0 .846 1.016 2.2 2.201 3.894 3.048 4.233 7.958 11.344 7.958 23.196 0 .507-.508.846-.846.846z"/>
    </g>
</svg>
