<svg xmlns="http://www.w3.org/2000/svg" width="101" height="100" viewBox="0 0 101 100">
    <g fill="none" fill-rule="nonzero">
        <path fill="#10767B" d="M16.747 18.25v78.72L34.07 81.751V3.033h-2.254l-1.2.916H19.228l-.003-.93-1.873.014L.027 18.25h16.719z"/>
        <path fill="#FFF" d="M2.414 18.25H14.78L30.616 3.95H18.251z"/>
        <path fill="#0E2D53" d="M21.124 14.406l-2.052-.032-4.291 3.876H2.415l4.493-4.058-2.222-.033L.028 18.25v78.72h16.718l4.377-3.845v-78.72z"/>
        <path fill="#59AEC4" d="M43.645 18.25v78.72l17.323-15.218V3.033h-2.254l-1.2.917H46.129l-.004-.931-1.874.014L26.926 18.25h16.719z"/>
        <path fill="#FFF" d="M29.313 18.25h12.365L57.514 3.95H45.15z"/>
        <path fill="#0E2D53" d="M48.021 14.406l-2.051-.032-4.292 3.876H29.313l4.493-4.058-2.222-.033-4.658 4.091v78.72h16.718l4.377-3.845v-78.72z"/>
        <path fill="#10767B" d="M80.207.237L67.38 19.397l20.25 76.07 12.826-19.16L80.206.236l-2.177.58-.924 1.193-11.004 2.93-.243-.899-1.806.496-12.827 19.16 16.155-4.3z"/>
        <path fill="#FFF" d="M53.53 23.084l11.95-3.18L77.104 2.01 65.156 5.19 53.53 23.086v-.001z"/>
        <path fill="#0E2D53" d="M70.62 14.556l-1.99.498-3.15 4.85-11.949 3.18 3.3-5.077-2.157.539-3.449 5.152 20.25 76.07 16.155-4.3 3.24-4.84-20.248-76.071z"/>
        <g fill="#FFF">
            <path d="M83.958 21.381l-1.016-3.87-7.168 11.72 1.016 3.87 7.168-11.72zM80.087 19.184l-.54-2.515-4.838 7.91.541 2.515 4.838-7.91h-.001z"/>
        </g>
    </g>
</svg>
