<svg xmlns="http://www.w3.org/2000/svg" width="155" height="364" viewBox="0 0 155 364">
    <g fill="none" fill-rule="nonzero" transform="translate(-8 -46)">
        <rect width="293" height="47" x="-26.292" y="217.708" fill="#10767B" rx="21" transform="rotate(-45 120.208 241.208)"/>
        <path fill="#0E2D53" d="M146.85 302.333l74.098-74.099c8.201-8.201 21.498-8.201 29.699 0l3.535 3.536c8.201 8.2 8.201 21.497 0 29.698l-74.099 74.1c-8.2 8.2-21.497 8.2-29.698 0l-3.536-3.536c-8.2-8.201-8.2-21.498 0-29.699z"/>
        <circle cx="62.5" cy="385.5" r="24.5" fill="#0E2D53"/>
        <circle cx="63" cy="176" r="13" fill="#0E2D53"/>
        <path fill="#10767B" d="M99.85 109.948l74.098-74.099c8.201-8.2 21.498-8.2 29.699 0l3.535 3.536c8.201 8.2 8.201 21.497 0 29.698l-74.099 74.1c-8.2 8.2-21.497 8.2-29.698 0l-3.536-3.536c-8.2-8.201-8.2-21.498 0-29.699z"/>
    </g>
</svg>
