<svg xmlns="http://www.w3.org/2000/svg" width="171" height="322" viewBox="0 0 171 322">
    <g fill="none" fill-rule="nonzero" transform="translate(0 -11)">
        <path fill="#0A595D" d="M6.15 293.317l177.485-177.484c8.2-8.2 21.497-8.2 29.698 0l3.536 3.536c8.2 8.201 8.2 21.497 0 29.698L39.385 326.551c-8.201 8.201-21.498 8.201-29.699 0l-3.535-3.535c-8.201-8.201-8.201-21.498 0-29.699z"/>
        <path fill="#0E2D53" d="M138.15 282.317l74.1-74.099c8.2-8.2 21.497-8.2 29.698 0l3.536 3.536c8.2 8.2 8.2 21.497 0 29.698l-74.1 74.1c-8.2 8.2-21.497 8.2-29.698 0l-3.535-3.536c-8.201-8.201-8.201-21.498 0-29.699z"/>
        <circle cx="54.302" cy="155.984" r="13" fill="#0E2D53"/>
        <path fill="#0A595D" d="M91.15 89.933l74.1-74.1c8.2-8.2 21.497-8.2 29.698 0l3.536 3.536c8.2 8.201 8.2 21.497 0 29.698l-74.1 74.1c-8.2 8.2-21.497 8.2-29.698 0l-3.535-3.536c-8.201-8.201-8.201-21.497 0-29.698z"/>
    </g>
</svg>
